<svg width="28" height="28" viewBox="0 0 28 28" fill="none" xmlns="http://www.w3.org/2000/svg">
<path fill-rule="evenodd" clip-rule="evenodd" d="M22.8 19.3155V19.8H6.2V19.3155C6.2 19.0887 6.43702 18.709 6.64037 18.6098L12.3007 15.8476C13.8252 15.1037 14.2066 13.3039 13.1106 12.0048L12.7491 11.5763C12.1957 10.9205 11.7 9.56566 11.7 8.70929V6.99958C11.7 5.4552 12.9563 4.2 14.5 4.2C16.0456 4.2 17.3 5.45491 17.3 7.00021V8.71019C17.3 9.56439 16.8022 10.9243 16.2509 11.5778L15.8893 12.0064C14.7956 13.3029 15.1729 15.1044 16.6995 15.849L22.3598 18.6101C22.5647 18.71 22.8 19.0861 22.8 19.3155ZM5 19.3155V20C5 20.5523 5.44772 21 6 21H23C23.5523 21 24 20.5523 24 20V19.3155C24 18.6252 23.5012 17.8317 22.8859 17.5316L17.2255 14.7705C16.4012 14.3684 16.217 13.479 16.8066 12.7801L17.1681 12.3516C17.9009 11.4829 18.5 9.8493 18.5 8.71019V7.00021C18.5 4.79298 16.7091 3 14.5 3C12.2954 3 10.5 4.79067 10.5 6.99958V8.70929C10.5 9.8495 11.0963 11.4783 11.8319 12.3501L12.1934 12.7786C12.7863 13.4813 12.5954 14.3685 11.7745 14.7691L6.1141 17.5313C5.49815 17.8319 5 18.6304 5 19.3155ZM27 14.5H24V15.7H27V14.5ZM22 11.5H27V12.7H22V11.5ZM27 8.5H20V9.7H27V8.5Z" fill="black" fill-opacity="0.9"/>
</svg>
