<svg width="24" height="24" viewBox="0 0 24 24" fill="none" xmlns="http://www.w3.org/2000/svg">
<path fill-rule="evenodd" clip-rule="evenodd" d="M20.5398 19.5544V19.0769C20.5398 18.8509 20.3079 18.4803 20.106 18.3819L14.5284 15.6612C13.0241 14.9274 12.6524 13.1523 13.7301 11.8747L14.0864 11.4524C14.6296 10.8084 15.1202 9.46842 15.1202 8.6267V6.94172C15.1202 5.41902 13.8841 4.18246 12.3611 4.18246C10.84 4.18246 9.60205 5.41931 9.60205 6.94111V8.62582C9.60205 9.46967 10.0905 10.8047 10.6358 11.4509L10.992 11.8732C12.072 13.1532 11.6962 14.9267 10.194 15.6598L4.61638 18.3816C4.41601 18.4793 4.18246 18.8535 4.18246 19.0769V19.5544H20.5398ZM3 20V19.3155C3 18.6304 3.49815 17.8319 4.1141 17.5313L9.77445 14.7691C10.5954 14.3685 10.7863 13.4813 10.1934 12.7786L9.83191 12.3501C9.09632 11.4783 8.5 9.8495 8.5 8.70929V6.99958C8.5 4.79067 10.2954 3 12.5 3C14.7091 3 16.5 4.79298 16.5 7.00021V8.71019C16.5 9.8493 15.9009 11.4829 15.1681 12.3516L14.8066 12.7801C14.217 13.479 14.4012 14.3684 15.2255 14.7705L20.8859 17.5316C21.5012 17.8317 22 18.6252 22 19.3155V20C22 20.5523 21.5523 21 21 21H4C3.44772 21 3 20.5523 3 20Z" fill="black" fill-opacity="0.9"/>
</svg>
