<svg width="28" height="28" viewBox="0 0 28 28" fill="none" xmlns="http://www.w3.org/2000/svg">
<path fill-rule="evenodd" clip-rule="evenodd" d="M5 20C5 20.5523 5.44771 21 6 21H23C23.5523 21 24 20.5523 24 20V19.3155C24 18.6252 23.5012 17.8317 22.8859 17.5316L17.2255 14.7705C16.4012 14.3684 16.217 13.479 16.8066 12.7801L17.1681 12.3516C17.9009 11.4829 18.5 9.8493 18.5 8.71019V7.00021C18.5 4.79298 16.7091 3 14.5 3C12.2954 3 10.5 4.79067 10.5 6.99958V8.70929C10.5 9.8495 11.0963 11.4783 11.8319 12.3501L12.1934 12.7786C12.7863 13.4813 12.5954 14.3685 11.7745 14.7691L6.1141 17.5313C5.49815 17.8319 5 18.6304 5 19.3155V20ZM27 14.5H24V16H27V14.5ZM22 11.5H27V13H22V11.5ZM27 8.5H20V10H27V8.5Z" fill="#07C160"/>
</svg>
