<svg width="28" height="28" viewBox="0 0 28 28" fill="none" xmlns="http://www.w3.org/2000/svg">
<path fill-rule="evenodd" clip-rule="evenodd" d="M10.1119 21.3125L10.625 21.4611C11.6999 21.7723 12.8358 21.9333 13.9999 21.9333C19.7159 21.9333 24.2666 18.0653 24.2666 13.4167C24.2666 8.76806 19.7159 4.89999 13.9999 4.89999C8.28391 4.89999 3.73324 8.76806 3.73324 13.4167C3.73324 15.8386 4.96633 18.1138 7.11727 19.7299L7.75971 20.2126L7.48547 22.5719L10.1119 21.3125ZM13.9999 23.3333C12.6828 23.3333 11.4166 23.1478 10.2356 22.8058L6.7555 24.4746C6.65616 24.5222 6.54537 24.5407 6.43593 24.528C6.11592 24.4908 5.88666 24.2012 5.92385 23.8812L6.2763 20.8492C3.85808 19.0322 2.33325 16.3758 2.33325 13.4167C2.33325 7.93984 7.5566 3.5 13.9999 3.5C20.4432 3.5 25.6666 7.93984 25.6666 13.4167C25.6666 18.8935 20.4432 23.3333 13.9999 23.3333Z" fill="black" fill-opacity="0.9"/>
</svg>
