<svg width="28" height="28" viewBox="0 0 28 28" fill="none" xmlns="http://www.w3.org/2000/svg">
<path fill-rule="evenodd" clip-rule="evenodd" d="M24.3 19.8V19.3155C24.3 19.0861 24.0647 18.71 23.8598 18.6101L18.1995 15.849C16.6729 15.1044 16.2956 13.3029 17.3893 12.0064L17.7509 11.5778C18.3022 10.9243 18.8 9.56439 18.8 8.71019V7.00021C18.8 5.45491 17.5456 4.2 16 4.2C14.4563 4.2 13.2 5.4552 13.2 6.99958V8.70929C13.2 9.56566 13.6957 10.9205 14.2491 11.5763L14.6106 12.0048C15.7066 13.3039 15.3252 15.1037 13.8007 15.8476L8.14037 18.6098C7.93702 18.709 7.7 19.0887 7.7 19.3155V19.8H24.3ZM6.5 20V19.3155C6.5 18.6304 6.99815 17.8319 7.6141 17.5313L13.2745 14.7691C14.0954 14.3685 14.2863 13.4813 13.6934 12.7786L13.3319 12.3501C12.5963 11.4783 12 9.8495 12 8.70929V6.99958C12 4.79067 13.7954 3 16 3C18.2091 3 20 4.79298 20 7.00021V8.71019C20 9.8493 19.4009 11.4829 18.6681 12.3516L18.3066 12.7801C17.717 13.479 17.9012 14.3684 18.7255 14.7705L24.3859 17.5316C25.0012 17.8317 25.5 18.6252 25.5 19.3155V20C25.5 20.5523 25.0523 21 24.5 21H7.5C6.94772 21 6.5 20.5523 6.5 20Z" fill="black" fill-opacity="0.9"/>
</svg>
