<svg width="28" height="28" viewBox="0 0 28 28" fill="none" xmlns="http://www.w3.org/2000/svg">
<path fill-rule="evenodd" clip-rule="evenodd" d="M7.5 21C6.94771 21 6.5 20.5523 6.5 20L6.5 19.3155C6.5 18.6304 6.99815 17.8319 7.6141 17.5313L13.2745 14.7691C14.0954 14.3685 14.2863 13.4813 13.6934 12.7786L13.3319 12.3501C12.5963 11.4783 12 9.8495 12 8.70929V6.99958C12 4.79067 13.7954 3 16 3C18.2091 3 20 4.79298 20 7.00021V8.71019C20 9.8493 19.4009 11.4829 18.6681 12.3516L18.3066 12.7801C17.717 13.479 17.9012 14.3684 18.7255 14.7705L24.3859 17.5316C25.0012 17.8317 25.5 18.6252 25.5 19.3155V20C25.5 20.5523 25.0523 21 24.5 21H7.5Z" fill="#07C160"/>
</svg>
